HIERARCHY
ROOT Hips
{
  OFFSET 74.0196 97.4445 -31.1285
  CHANNELS 6 Xposition Yposition Zposition Zrotation Xrotation Yrotation
  JOINT RightUpLeg
  {
    OFFSET -8.9458 -8.66707 0.101652
    CHANNELS 3 Zrotation Xrotation Yrotation
    JOINT RightLeg
    {
      OFFSET -2.94875e-013 -44.4227 1.3727
      CHANNELS 3 Zrotation Xrotation Yrotation
      JOINT RightFoot
      {
        OFFSET 0.253549 -42.0924 -1.46059
        CHANNELS 3 Zrotation Xrotation Yrotation
        JOINT RightToes
        {
          OFFSET 0.04 -4.41509 8.4991
          CHANNELS 3 Zrotation Xrotation Yrotation
          End Site
          {
            OFFSET -0.08 -0.137448 9.77979
          }
        }
      }
    }
  }
  JOINT Spine
  {
    OFFSET -5.68434e-014 11.8905 -6.39488e-014
    CHANNELS 3 Zrotation Xrotation Yrotation
    JOINT Spine1
    {
      OFFSET 5.68434e-014 25.6574 0.127663
      CHANNELS 3 Zrotation Xrotation Yrotation
      JOINT HEad
      {
        OFFSET 4.26326e-014 8.73416 0.011341
        CHANNELS 3 Zrotation Xrotation Yrotation
        End Site
        {
          OFFSET -0.29 12.7742 2.51395
        }
      }
      JOINT LeftShoulder1
      {
        OFFSET 8.99 -0.362252 -0.22
        CHANNELS 3 Zrotation Xrotation Yrotation
        JOINT LeftArm
        {
          OFFSET 10.2827 -0.00338 0.322123
          CHANNELS 3 Zrotation Xrotation Yrotation
          JOINT LeftForeArm
          {
            OFFSET 32.7669 0.099144 -1.42434
            CHANNELS 3 Zrotation Xrotation Yrotation
            JOINT LeftHand
            {
              OFFSET 27.5643 0.085362 1.02216
              CHANNELS 3 Zrotation Xrotation Yrotation
              End Site
              {
                OFFSET 16.7443 -0.6 1.50291
              }
            }
          }
        }
      }
      JOINT RightShoulder
      {
        OFFSET -8.99 -0.362252 -0.22
        CHANNELS 3 Zrotation Xrotation Yrotation
        JOINT RightArm
        {
          OFFSET -10.2827 -0.00338 0.322123
          CHANNELS 3 Zrotation Xrotation Yrotation
          JOINT RightForeArm
          {
            OFFSET -32.8971 0.099144 -1.42434
            CHANNELS 3 Zrotation Xrotation Yrotation
            JOINT RightHand
            {
              OFFSET -27.4921 0.085362 1.02216
              CHANNELS 3 Zrotation Xrotation Yrotation
              End Site
              {
                OFFSET -16.6312 -0.6 1.50291
              }
            }
          }
        }
      }
    }
  }
  JOINT LeftUpLeg
  {
    OFFSET 8.9458 -8.66707 0.101652
    CHANNELS 3 Zrotation Xrotation Yrotation
    JOINT LeftLeg
    {
      OFFSET 7.10543e-014 -44.4227 1.3727
      CHANNELS 3 Zrotation Xrotation Yrotation
      JOINT LeftFoot
      {
        OFFSET -0.253549 -42.0924 -1.46059
        CHANNELS 3 Zrotation Xrotation Yrotation
        JOINT LeftToes
        {
          OFFSET -0.04 -4.41509 8.4991
          CHANNELS 3 Zrotation Xrotation Yrotation
          End Site
          {
            OFFSET 0.08 -0.047448 9.77979
          }
        }
      }
    }
  }
}
MOTION
Frames:	10
Frame Time:	0.0166667
-28.0146 91.2609 -76.4743 0.664603 -0.522289 73.8163 -27.4 -28.4818 5.37597 11.3759 40.0296 -16.5485 2.85638 13.0127 -0.54998 -6.46567 -16.2803 -4.19182 2.92817 6.07953 -1.53476 -2.12878 11.7995 -2.87195 6.76964 -12.0888 -23.7648 -5.03302e-021 -3.88251e-019 1.21329e-020 -71.7461 8.82527 -35.4747 -11.5201 36.2802 -113.981 6.54677 9.62745 -1.04006 29.4651 -8.01415 -27.6862 59.4026 -27.4122 32.5809 156.829 -8.74663 29.1608 26.8603 29.4533 68.2689 25.5544 -13.7737 -4.52444 -18.0004 35.97 12.243 -10.3381 29.8436 3.19681 47.1923 -57.7547 28.8569 
-28.4103 91.0967 -75.0809 0.775183 -0.72503 74.6605 -27.1252 -26.4495 6.0083 10.0948 36.9451 -15.57 3.63944 12.597 -0.68029 -6.51898 -15.3432 -5.03608 2.78936 6.00592 -1.8581 -1.86714 11.7402 -3.48149 6.84243 -11.332 -23.3702 -5.03302e-021 -3.88251e-019 1.21329e-020 -71.0686 7.79109 -37.1708 -11.2915 36.2955 -114.502 6.54677 9.62745 -1.04006 28.4904 -7.0322 -25.3346 62.0322 -31.2447 34.9757 155.628 -8.13905 28.7751 26.5103 29.6968 69.7115 26.0749 -14.7346 -3.4998 -18.2927 36.9724 12.7773 -11.8573 30.913 3.80578 47.6123 -57.8769 29.2656 
-28.859 90.8255 -73.6436 1.11905 -0.989254 75.2889 -26.7749 -24.6948 6.1994 9.29812 34.894 -13.7563 4.95525 12.996 -0.926655 -7.73808 -18.1692 -5.77773 2.56734 6.02001 -2.26564 -1.66188 11.8463 -4.23817 7.10418 -10.5834 -22.562 -5.03302e-021 -3.88251e-019 1.21329e-020 -70.6493 6.16924 -39.1112 -11.1268 36.5806 -115.198 6.54677 9.62745 -1.04006 27.3684 -5.9652 -22.6252 64.9088 -34.9102 37.8461 154.072 -7.23542 28.7526 26.208 30.0881 71.4928 26.362 -14.8352 -3.1151 -17.7249 37.1278 12.7495 -12.8345 31.6095 4.21485 48.7816 -58.0347 30.5759 
-29.3682 90.5128 -72.1952 1.57326 -1.27878 75.9048 -26.4929 -23.3693 5.85261 9.13698 34.0033 -11.7369 6.27493 13.805 -1.20269 -9.73987 -23.444 -6.42298 2.37194 6.10063 -2.71501 -1.47656 12.0677 -5.08713 7.48482 -9.97417 -21.6214 -5.03302e-021 -3.88251e-019 1.21329e-020 -70.527 4.24672 -41.216 -11.0587 37.121 -115.966 6.54677 9.62745 -1.04006 26.2599 -5.0113 -20.0699 67.5835 -37.8335 41.0964 152.044 -5.79232 29.2994 26.2201 30.7829 73.458 26.4315 -14.3915 -3.49292 -16.3251 36.5365 12.2099 -13.2147 32.1642 4.40976 50.2535 -58.1801 32.2547 
-29.9272 90.1865 -70.7976 1.99815 -1.51657 76.6757 -26.4237 -22.5334 5.01714 9.55281 34.1412 -9.98399 7.34866 14.6577 -1.45234 -12.0416 -29.564 -7.03121 2.28186 6.21462 -3.15323 -1.28931 12.3403 -5.93731 7.89471 -9.68539 -20.8355 -5.03302e-021 -3.88251e-019 1.21329e-020 -70.6965 2.37611 -43.4441 -11.1005 37.8407 -116.677 6.54677 9.62745 -1.04006 25.2844 -4.29092 -18.0722 69.6113 -39.6816 44.613 149.286 -3.65357 30.6559 26.6312 31.8731 75.6027 26.32 -13.8523 -4.46655 -14.3847 35.5592 11.4267 -13.0461 32.6707 4.40726 51.4115 -58.2667 33.5853 
-30.5191 89.8651 -69.5253 2.28974 -1.60895 77.65 -26.6799 -22.1428 3.90461 10.4042 34.9428 -8.78335 8.13844 15.2604 -1.64473 -14.171 -35.0977 -7.58841 2.31531 6.32607 -3.52338 -1.10026 12.6001 -6.67732 8.2441 -9.84059 -20.409 -5.03302e-021 -3.88251e-019 1.21329e-020 -71.1308 0.877382 -45.7297 -11.2495 38.6294 -117.208 6.54677 9.62745 -1.04006 24.4727 -3.82615 -16.799 70.7147 -40.5064 48.3461 145.443 -0.864148 32.9586 27.1214 33.2369 78.1841 26.0809 -13.6394 -5.64238 -12.409 34.6745 10.8023 -12.379 33.0885 4.21387 51.6972 -58.2917 33.9075 
-31.1282 89.5834 -68.4446 2.41508 -1.48438 78.7226 -27.2991 -22.0749 2.8146 11.5618 35.9344 -8.24862 8.66107 15.3931 -1.75838 -15.7277 -39.08 -7.9798 2.42382 6.40639 -3.77397 -0.924476 12.7963 -7.2029 8.44534 -10.4021 -20.4087 -5.03302e-021 -3.88251e-019 1.21329e-020 -71.798 -0.0540349 -47.937 -11.488 39.3754 -117.484 6.54677 9.62745 -1.04006 23.7572 -3.55815 -16.1552 70.8833 -40.6967 52.3412 140.233 2.27445 36.1196 26.876 34.3943 81.6584 25.7556 -14.0074 -6.56942 -10.953 34.3233 10.6842 -11.2444 33.2863 3.82462 50.8107 -58.2442 32.8741 
-31.7391 89.3794 -67.604 2.41793 -1.13111 79.6635 -28.2156 -22.1898 1.99464 12.9035 36.7055 -8.3184 8.88514 14.9685 -1.77342 -16.485 -41.1169 -8.1011 2.53693 6.44337 -3.87417 -0.775012 12.903 -7.44494 8.42954 -11.142 -20.7502 -5.03302e-021 -3.88251e-019 1.21329e-020 -72.6703 -0.402267 -49.8656 -11.7853 39.9948 -117.495 6.54677 9.62745 -1.04006 22.9948 -3.37709 -15.8428 70.274 -40.7432 56.591 133.678 5.30927 39.8165 24.8808 34.4529 86.2585 25.3584 -14.9558 -6.9102 -10.3963 34.7979 11.1845 -9.75462 33.0761 3.26952 48.7816 -58.0615 30.5486 
-32.3364 89.2641 -67.0359 2.40081 -0.612068 80.1942 -29.2698 -22.3892 1.5155 14.2441 37.04 -8.72885 8.75136 14.0956 -1.68629 -16.4828 -41.3441 -7.97567 2.62461 6.44561 -3.82621 -0.65057 12.9282 -7.38855 8.19059 -11.716 -21.2281 -5.03302e-021 -3.88251e-019 1.21329e-020 -73.7267 -0.326122 -51.306 -12.1049 40.4527 -117.294 6.54677 9.62745 -1.04006 22.0154 -3.15911 -15.4723 69.065 -41.0086 60.8522 126.318 7.78506 43.5881 20.694 32.3426 91.2736 24.9034 -16.2228 -6.55488 -10.8211 36.1668 12.1598 -8.19275 32.2897 2.65618 45.9493 -57.6655 27.3585 
-32.9069 89.2171 -66.7504 2.49066 -0.0458483 80.0787 -30.2513 -22.6325 1.24592 15.3147 36.9435 -9.04126 8.24563 13.058 -1.52275 -15.9729 -40.28 -7.72688 2.70714 6.43879 -3.66354 -0.538718 12.9125 -7.07633 7.81465 -11.803 -21.5854 -5.03302e-021 -3.88251e-019 1.21329e-020 -74.9471 -0.0914519 -52.1185 -12.4181 40.7705 -116.98 6.54677 9.62745 -1.04006 20.6888 -2.81443 -14.7055 67.4469 -41.6146 64.6509 119.366 9.1607 46.9516 15.1288 27.7032 94.8071 24.4333 -17.3852 -5.6538 -12.0758 38.2467 13.362 -6.92023 30.9129 2.13233 42.863 -57.032 23.9598 
